<svg width="512" height="512" viewBox="0 0 512 512" fill="none" xmlns="http://www.w3.org/2000/svg">
<path d="M381.884 374.855C380.761 369.576 383.337 364.225 388.153 361.79C430.769 340.253 458.955 302.913 458.955 260.453C458.955 207.601 415.284 162.69 354.469 146.308C276.593 149.912 214.865 200.143 214.865 261.59C214.865 325.377 281.381 377.087 363.432 377.087C363.633 377.087 363.835 377.087 364.036 377.086C368.083 377.073 371.843 379.193 373.866 382.698C375.637 385.767 377.404 388.326 379.58 390.989L384.909 385.986C383.562 381.502 382.431 377.428 381.884 374.855V374.855Z" fill="#FBD72B"/>
<path d="M444.299 358.489C485.049 337.895 512 302.191 512 261.59C512 197.803 445.484 146.093 363.433 146.093C352.288 146.093 341.434 147.054 330.99 148.863C397.437 160.37 447.115 206.467 447.115 261.59C447.115 302.191 420.164 337.895 379.414 358.489C374.808 360.817 372.345 365.934 373.419 370.982C374.899 377.94 377.091 384.702 379.581 390.989C401.027 417.54 440.452 424.8 456.81 426.707C459.741 427.049 461.753 423.844 460.159 421.361C454.08 411.891 442.848 392.343 438.304 370.981C437.23 365.934 439.693 360.817 444.299 358.489V358.489Z" fill="#EBC617"/>
<path d="M162.739 87.366C70.291 99.316 0 161.743 0 237.003C0 272.734 15.889 305.58 42.471 331.505C45.596 334.553 46.796 339.085 45.647 343.297C37.388 373.593 19.511 400.974 8.743 415.597C12.318 419.172 17.639 420.375 22.4 418.674C49.419 409.023 61.65 398.683 81.718 377.318C86.859 371.845 94.919 370.305 101.743 373.437C106.299 375.528 110.976 377.475 115.761 379.275C121.609 381.475 127.896 382.535 134.111 381.892C135.452 381.753 136.826 381.836 138.179 382.157C146.342 384.093 154.229 385.536 162.808 386.631L199.965 385.431C278.237 363.79 334.282 305.703 334.282 237.428C334.282 167.024 274.689 107.451 192.581 87.505L162.739 87.366Z" fill="#BF04F5"/>
<path d="M75.972 371.563C54.043 394.91 41.472 405.093 8.743 415.596C7.327 417.518 6.029 419.23 4.898 420.688C2.96 423.185 4.791 426.809 7.951 426.73C29.55 426.191 90.143 421.356 126.831 385.285C129.818 382.348 134.104 381.188 138.18 382.155C138.171 382.138 138.16 382.121 138.151 382.104C123.256 378.58 109.118 373.709 95.968 367.673C89.154 364.547 81.105 366.098 75.972 371.563Z" fill="#A300D2"/>
<path d="M195.181 85.267C184.126 85.267 173.291 85.993 162.739 87.365C255.091 99.378 325.477 161.795 325.477 237.002C325.477 312.19 255.126 374.594 162.809 386.63C173.341 387.999 184.148 388.738 195.181 388.738C302.977 388.738 390.362 320.804 390.362 237.003C390.362 153.202 302.977 85.267 195.181 85.267V85.267Z" fill="#A300D2"/>
<path d="M74.954 255.196C85.4756 255.196 94.005 246.667 94.005 236.145C94.005 225.623 85.4756 217.094 74.954 217.094C64.4324 217.094 55.903 225.623 55.903 236.145C55.903 246.667 64.4324 255.196 74.954 255.196Z" fill="#F0F7FF"/>
<path d="M151.345 255.196C161.867 255.196 170.396 246.667 170.396 236.145C170.396 225.623 161.867 217.094 151.345 217.094C140.823 217.094 132.294 225.623 132.294 236.145C132.294 246.667 140.823 255.196 151.345 255.196Z" fill="#F0F7FF"/>
<path d="M227.736 255.196C238.258 255.196 246.787 246.667 246.787 236.145C246.787 225.623 238.258 217.094 227.736 217.094C217.214 217.094 208.685 225.623 208.685 236.145C208.685 246.667 217.214 255.196 227.736 255.196Z" fill="#F0F7FF"/>
<path d="M304.126 255.196C314.648 255.196 323.177 246.667 323.177 236.145C323.177 225.623 314.648 217.094 304.126 217.094C293.604 217.094 285.075 225.623 285.075 236.145C285.075 246.667 293.604 255.196 304.126 255.196Z" fill="#F0F7FF"/>
</svg>
