<svg width="512" height="512" viewBox="0 0 512 512" fill="none" xmlns="http://www.w3.org/2000/svg">
<path d="M272 437C272 445.291 278.709 452 287 452C295.291 452 302 445.291 302 437V268.321L288.317 242.23L272 276.893V437Z" fill="#FFDF47"/>
<path d="M482 377C482 385.291 488.709 392 497 392C505.291 392 512 385.291 512 377V208.32L497.747 182.393L482 216.893V377Z" fill="#D7B61B"/>
<path d="M242 512C208.909 512 182 485.091 182 452C182 418.909 208.909 392 242 392C275.091 392 302 418.909 302 452C302 485.091 275.091 512 242 512Z" fill="#FBD72B"/>
<path d="M452 452C418.909 452 392 425.091 392 392C392 358.909 418.909 332 452 332C485.091 332 512 358.909 512 392C512 425.091 485.091 452 452 452Z" fill="#E8C20C"/>
<path d="M506 124.999C502.4 122.3 497.301 121.399 492.8 122.598L392 151.399L282.8 182.598C276.501 184.398 272 190.398 272 196.999V276.798L302 268.399L392 242.598L482 216.798L512 208.399V137C512 132.199 509.9 128 506 124.999Z" fill="#FBD72B"/>
<path d="M512 137V208.4L482 216.799L392 242.599V151.4L492.8 122.599C497.301 121.4 502.4 122.301 506 125C509.9 128 512 132.199 512 137Z" fill="#E8C20C"/>
<path d="M242 167C242 208.4 208.4 242 167 242C158.599 242 152 235.399 152 227C152 218.599 158.599 212 167 212C191.901 212 212 191.899 212 167C212 152.599 205.401 139.399 193.7 130.699C169.7 113.298 142.3 91 121 64.299V302C121 310.399 114.401 317 106 317C97.599 317 91 310.399 91 302V15C91 8.399 95.2 2.699 101.499 0.599C103.001 0.3 104.5 0 106 0C110.799 0 115.6 2.399 118.599 6.599L135.699 32.699C155.5 62.1 184.4 86.6 211.399 106.399C230.6 120.5 242 143.299 242 167Z" fill="#FFDF47"/>
<path d="M106 262.7C95.2 250.099 78.999 242 61 242C28.001 242 0 268.999 0 302C0 334.999 28.001 362 61 362C78.999 362 95.2 353.899 106 341.3C115.6 330.799 121 317 121 302C121 287 115.6 273.199 106 262.7Z" fill="#FBD72B"/>
<path d="M121 302C121 317 115.6 330.799 106 341.3V262.7C115.6 273.199 121 287 121 302Z" fill="#D7B61B"/>
<path d="M242 167C242 208.4 208.4 242 167 242C158.599 242 152 235.399 152 227C152 218.599 158.599 212 167 212C191.901 212 212 191.899 212 167C212 152.599 205.401 139.399 193.7 130.699C169.7 113.298 142.3 91 121 64.299V302C121 310.399 114.401 317 106 317V0C110.799 0 115.6 2.399 118.599 6.599L135.699 32.699C155.5 62.1 184.4 86.6 211.399 106.399C230.6 120.5 242 143.299 242 167Z" fill="#E8C20C"/>
</svg>
