<?xml version="1.0" encoding="iso-8859-1"?>
<!-- Generator: Adobe Illustrator 19.0.0, SVG Export Plug-In . SVG Version: 6.00 Build 0)  -->
<svg version="1.1" id="Capa_1" xmlns="http://www.w3.org/2000/svg" xmlns:xlink="http://www.w3.org/1999/xlink" x="0px" y="0px"
	 viewBox="0 0 512 512" style="enable-background:new 0 0 512 512;" xml:space="preserve">
<path style="fill:#FEDB41;" d="M482,343.4c0,18.6-15,33.6-33.6,33.6h-30c18.6,0,33.6,15,33.6,33.6c0,18.9-15,33.9-33.6,33.9h-30
	c18.6,0,33.6,15,33.6,33.9c0,18.6-15,33.6-33.6,33.6H287c-42.001-10.501-17.401-4.501-120-30V242c0.3,0,64.799-17.401,96.599-33.6
	c28.2-14.101,47.701-63.9,52.202-100.801c0.599-4.499,3.3-8.699,7.2-11.1c2.699-1.5,5.7-2.1,9-1.8c1.199-0.3,2.701,0,3.9,0.601
	c24.6,9,39.901,34.2,36,60.3C365.6,197.3,359.599,212,348.5,242h99.9c18.6,0,33.6,15,33.6,33.6c0,18.9-15,33.9-33.6,33.9
	C467,309.5,482,324.5,482,343.4z"/>
<path style="fill:#FCBF29;" d="M482,343.4c0,18.6-15,33.6-33.6,33.6h-30c18.6,0,33.6,15,33.6,33.6c0,18.9-15,33.9-33.6,33.9h-30
	c18.6,0,33.6,15,33.6,33.9c0,18.6-15,33.6-33.6,33.6H332V94.699c1.199-0.3,2.701,0,3.9,0.601c24.6,9,39.901,34.2,36,60.3
	c-6.3,41.7-12.301,56.4-23.4,86.4h99.9c18.6,0,33.6,15,33.6,33.6c0,18.9-15,33.9-33.6,33.9C467,309.5,482,324.5,482,343.4z"/>
<path style="fill:#C8C6CD;" d="M75,482H15c-8.291,0-15-6.709-15-15V257c0-8.291,6.709-15,15-15h60c8.291,0,15,6.709,15,15v210
	C90,475.291,83.291,482,75,482z"/>
<g>
	<path style="fill:#FEA832;" d="M347,15v32c0,8.399-6.599,15-15,15s-15-6.601-15-15V15c0-8.401,6.599-15,15-15S347,6.599,347,15z"/>
	<path style="fill:#FEA832;" d="M225.931,97.142L204.72,75.931c-5.859-5.859-5.859-15.352,0-21.211s15.352-5.859,21.211,0
		l21.211,21.211c5.859,5.859,5.859,15.352,0,21.211C241.282,103.001,231.79,103.001,225.931,97.142z"/>
	<path style="fill:#FEA832;" d="M197,197h-30c-8.291,0-15-6.709-15-15s6.709-15,15-15h30c8.291,0,15,6.709,15,15
		S205.291,197,197,197z"/>
</g>
<g>
	<path style="fill:#FE9923;" d="M497,197h-30c-8.291,0-15-6.709-15-15s6.709-15,15-15h30c8.291,0,15,6.709,15,15
		S505.291,197,497,197z"/>
	<path style="fill:#FE9923;" d="M416.858,97.142c-5.859-5.859-5.859-15.352,0-21.211l21.211-21.211
		c5.859-5.859,15.352-5.859,21.211,0s5.859,15.352,0,21.211l-21.211,21.211C432.21,103.001,422.718,103.001,416.858,97.142z"/>
	<path style="fill:#FE9923;" d="M332,62V0c8.401,0,15,6.599,15,15v32C347,55.399,340.401,62,332,62z"/>
</g>
<path style="fill:#E5E5E5;" d="M137,512H75c-8.284,0-15-6.716-15-15V242h122v225C182,491.853,161.853,512,137,512z"/>
<g>
</g>
<g>
</g>
<g>
</g>
<g>
</g>
<g>
</g>
<g>
</g>
<g>
</g>
<g>
</g>
<g>
</g>
<g>
</g>
<g>
</g>
<g>
</g>
<g>
</g>
<g>
</g>
<g>
</g>
</svg>
